<svg version="1.1" id="Layer_1" xmlns="http://www.w3.org/2000/svg" xmlns:xlink="http://www.w3.org/1999/xlink" x="0px" y="0px"
	 width="100%" viewBox="0 0 720 720" enable-background="new 0 0 720 720" xml:space="preserve">
<path fill="#3C3845" opacity="1.000000" stroke="none" 
	d="
M721.000000,285.000000 
	C721.000000,430.666656 721.000000,575.833313 721.000000,721.000000 
	C481.000000,721.000000 241.000000,721.000000 1.000000,721.000000 
	C1.000000,481.000000 1.000000,241.000000 1.000000,1.000000 
	C241.000000,1.000000 481.000000,1.000000 721.000000,1.000000 
	C721.000000,95.500000 721.000000,190.000000 721.000000,285.000000 
M550.500000,1.999763 
	C370.005341,1.999769 189.510681,1.999528 9.016022,2.000713 
	C2.005930,2.000759 2.000583,2.007134 2.000554,9.129995 
	C1.999613,243.789627 1.999566,478.449249 2.000870,713.108887 
	C2.000908,719.989929 2.008408,719.998657 8.754981,719.998718 
	C243.581284,720.000244 478.407593,720.000244 713.233887,719.998779 
	C719.991577,719.998718 719.998901,719.990112 719.998901,713.120117 
	C720.000183,478.293823 720.000305,243.467545 719.998474,8.641251 
	C719.998413,2.015011 719.987793,2.002251 713.495117,2.001823 
	C659.496765,1.998262 605.498352,1.999779 550.500000,1.999763 
z"/>
<path fill="#1D2143" opacity="1.000000" stroke="none" 
	d="
M551.000000,1.999763 
	C605.498352,1.999779 659.496765,1.998262 713.495117,2.001823 
	C719.987793,2.002251 719.998413,2.015011 719.998474,8.641251 
	C720.000305,243.467545 720.000183,478.293823 719.998901,713.120117 
	C719.998901,719.990112 719.991577,719.998718 713.233887,719.998779 
	C478.407593,720.000244 243.581284,720.000244 8.754981,719.998718 
	C2.008408,719.998657 2.000908,719.989929 2.000870,713.108887 
	C1.999566,478.449249 1.999613,243.789627 2.000554,9.129995 
	C2.000583,2.007134 2.005930,2.000759 9.016022,2.000713 
	C189.510681,1.999528 370.005341,1.999769 551.000000,1.999763 
M358.697693,386.007568 
	C361.526825,386.007599 364.396057,386.298431 367.172394,385.915680 
	C369.394409,385.609314 371.503571,384.484283 374.665649,383.368835 
	C379.753510,387.248474 384.007782,388.207397 389.223480,385.785278 
	C394.035950,383.550385 395.848328,379.388000 395.895355,374.424744 
	C396.012115,362.111969 396.105957,349.795380 395.911102,337.485016 
	C395.829590,332.336304 393.125519,329.070679 387.816956,327.545532 
	C382.128815,325.911346 377.719818,328.306580 372.778931,331.432251 
	C372.778931,325.627747 372.778931,320.527893 372.778931,315.339752 
	C366.730591,315.339752 361.031036,315.339752 355.102264,315.339752 
	C355.102264,338.133575 355.068390,360.580994 355.214264,383.027252 
	C355.220734,384.025635 356.864166,385.013397 358.697693,386.007568 
M623.112610,370.496399 
	C623.092163,361.334259 623.092224,352.172058 623.046692,343.010040 
	C622.972107,327.996307 614.722839,323.126740 601.208618,330.078430 
	C600.971741,330.200287 600.584717,330.030334 599.713989,329.937531 
	C599.713989,325.084167 599.713989,320.178894 599.713989,315.407654 
	C593.585510,315.407654 588.019409,315.407654 582.436768,315.407654 
	C582.436768,339.057129 582.436768,362.290009 582.436768,385.690521 
	C588.359436,385.690521 593.925964,385.690521 600.007141,385.690521 
	C600.007141,383.598145 600.007141,381.803131 600.007141,380.008118 
	C600.007202,368.013733 599.999573,356.019348 600.017151,344.024963 
	C600.019348,342.529999 599.838074,340.917786 600.333923,339.579193 
	C600.701538,338.586700 602.029114,337.949799 602.929077,337.154510 
	C603.630798,337.956390 604.741089,338.666229 604.946960,339.579865 
	C605.343628,341.339935 605.309326,343.215088 605.313293,345.042847 
	C605.339050,356.870575 605.312561,368.698425 605.342712,380.526154 
	C605.347107,382.265442 605.561340,384.004242 605.674316,385.681427 
	C611.734497,385.681427 617.157837,385.681427 623.112854,385.681427 
	C623.112854,380.742157 623.112854,376.118439 623.112610,370.496399 
M339.619232,328.696411 
	C337.555939,328.160492 335.520233,327.453339 333.424957,327.115906 
	C317.306488,324.520020 306.343750,335.300995 310.265228,349.792175 
	C315.381165,349.792175 320.487274,349.792175 326.041840,349.792175 
	C326.041840,346.646454 325.811798,343.668274 326.146271,340.754883 
	C326.296509,339.446411 327.575623,338.267548 328.342499,337.029877 
	C329.446686,338.229828 331.218872,339.273560 331.542145,340.656097 
	C333.143372,347.504425 331.581726,349.668640 323.461792,352.876556 
	C309.315491,358.465302 308.495911,359.878357 309.582153,375.036011 
	C309.940613,380.038300 311.283051,384.148651 316.511871,385.982208 
	C321.832947,387.848083 326.600281,387.321045 330.608032,383.010925 
	C330.899658,382.697296 331.375793,382.555298 331.856140,382.282379 
	C332.051544,383.549164 332.220215,384.642792 332.393646,385.767273 
	C337.962921,385.767273 343.391815,385.767273 348.895416,385.767273 
	C348.895416,370.609253 349.043915,355.683777 348.818878,340.763947 
	C348.734406,335.164032 345.690063,331.081085 339.619232,328.696411 
M402.123413,349.789581 
	C407.374695,349.789581 412.625977,349.789581 418.038239,349.789581 
	C418.038239,346.502838 417.809143,343.652130 418.137482,340.867126 
	C418.295441,339.527435 419.505188,338.311737 420.238647,337.039886 
	C421.373871,338.204956 423.195862,339.201965 423.528961,340.563293 
	C425.245697,347.579132 423.765564,349.562714 415.044922,352.991943 
	C401.691498,358.242828 400.735443,359.728241 401.514343,374.022064 
	C401.532440,374.354279 401.605865,374.684143 401.614197,375.016083 
	C401.740570,380.041779 403.275665,384.148376 408.517181,385.984314 
	C413.851074,387.852600 418.622406,387.312317 422.630554,382.988983 
	C422.919952,382.676849 423.407959,382.548889 423.852997,382.308685 
	C424.047699,383.560730 424.218445,384.658691 424.387573,385.746338 
	C430.005463,385.746338 435.439240,385.746338 440.925568,385.746338 
	C440.925568,370.700134 441.035980,355.908661 440.865601,341.120483 
	C440.806183,335.961914 438.449982,331.677795 433.562103,329.502808 
	C425.596375,325.958282 417.458344,325.853851 409.561707,329.686157 
	C401.268768,333.710815 401.329346,341.397278 402.123413,349.789581 
M141.815460,339.613831 
	C141.504074,349.228607 140.890060,358.845490 140.957870,368.457581 
	C141.042709,380.481323 145.068024,385.334961 156.754211,386.758453 
	C170.478516,388.430206 181.581207,382.929688 181.142563,366.924866 
	C180.942017,359.608032 181.234543,352.278442 181.076401,344.959534 
	C180.851334,334.543396 175.454254,328.751099 164.046997,327.177368 
	C154.889633,325.914001 144.218384,329.254303 141.815460,339.613831 
M227.320999,329.526215 
	C221.361176,332.709595 219.207001,338.149628 219.007004,344.422119 
	C218.752472,352.404602 218.745544,360.403442 218.917252,368.389069 
	C219.176651,380.453094 223.026779,385.286133 234.695480,386.744385 
	C248.421066,388.459686 259.575775,382.945892 259.141083,366.975891 
	C258.959961,360.322571 259.264465,353.656921 259.128784,347.001343 
	C258.875031,334.554047 254.175064,328.727081 242.069580,327.316925 
	C237.510040,326.785767 232.693344,328.462311 227.320999,329.526215 
M503.753418,327.935547 
	C495.043365,330.702179 491.288269,334.965027 491.002502,343.617920 
	C490.700378,352.765808 490.521576,361.965546 491.200623,371.074646 
	C491.473938,374.740387 493.458984,378.845673 495.912628,381.665161 
	C501.241943,387.789093 515.447083,388.803528 523.031799,384.346832 
	C529.887268,380.318634 532.743225,371.877930 530.406494,362.363983 
	C525.367493,362.363983 520.306091,362.363983 515.178467,362.363983 
	C514.858093,366.511200 514.762634,370.332458 514.148560,374.068512 
	C513.971985,375.142792 512.291687,376.712311 511.314789,376.702271 
	C510.351624,376.692383 508.636780,375.010193 508.582184,373.990448 
	C508.302551,368.770538 508.452789,363.527557 508.452789,357.751587 
	C516.347839,357.751587 523.596191,357.751587 530.748596,357.751587 
	C533.449768,335.378143 525.738342,324.507843 503.753418,327.935547 
M133.238846,381.682373 
	C140.137482,371.455780 137.327209,359.164948 126.716255,353.302277 
	C123.817421,351.700623 120.438446,350.677063 118.052040,348.529938 
	C116.105522,346.778625 114.869965,343.857330 114.214134,341.231323 
	C113.937714,340.124481 115.961372,338.443207 116.939491,337.023071 
	C117.886581,338.304504 119.254837,339.462769 119.674644,340.898407 
	C120.204849,342.711548 119.961975,344.750732 120.052574,346.692261 
	C125.202972,346.692261 130.082825,346.692261 134.912659,346.692261 
	C136.425110,334.809265 132.992828,330.892303 125.269730,328.407257 
	C121.726479,327.267181 117.746788,326.951508 113.996559,327.093719 
	C105.285698,327.423981 100.369453,330.897858 98.678429,337.165131 
	C96.147690,346.544525 98.473465,353.770325 105.761208,358.524292 
	C109.090919,360.696320 112.497597,362.820343 116.084167,364.510254 
	C120.195229,366.447357 120.976837,369.732819 120.273972,373.555969 
	C120.040878,374.823853 118.466095,375.845093 117.504723,376.979126 
	C116.387070,375.825897 114.552361,374.808624 114.302467,373.490814 
	C113.797150,370.826141 114.151756,367.998444 114.151756,365.426392 
	C108.418686,365.426392 103.384544,365.426392 98.230042,365.426392 
	C98.404984,368.015167 98.594559,370.164215 98.686539,372.317444 
	C98.880653,376.861450 100.275391,380.746460 104.260185,383.409637 
	C112.126732,388.667175 125.096138,388.161163 133.238846,381.682373 
M282.210480,354.511414 
	C282.238403,349.854187 282.081665,345.183563 282.418365,340.548767 
	C282.507477,339.322083 284.116150,338.205811 285.027100,337.038849 
	C285.922516,338.236176 287.418579,339.353333 287.591339,340.647156 
	C287.980194,343.559326 287.713348,346.559082 287.713348,349.761230 
	C293.337097,349.761230 298.576721,349.761230 303.797516,349.761230 
	C305.084290,336.302521 300.097229,329.315552 287.833801,327.164307 
	C276.273834,325.136475 265.556152,331.935760 265.066772,342.176514 
	C264.614777,351.633698 264.748291,361.138489 265.081421,370.606171 
	C265.280396,376.261108 267.192413,381.557648 272.736176,384.286774 
	C280.841827,388.277039 289.251648,388.541168 296.863251,383.506287 
	C304.491669,378.460266 304.693970,370.403046 303.913879,362.371124 
	C298.652039,362.371124 293.775177,362.371124 288.689789,362.371124 
	C288.689789,365.901703 289.057739,369.120972 288.545410,372.193512 
	C288.259338,373.909027 286.510864,375.380707 285.421417,376.962250 
	C284.365479,375.299530 282.527588,373.695099 282.398438,371.963257 
	C281.991211,366.503021 282.224854,360.994965 282.210480,354.511414 
M560.160522,349.201141 
	C565.340820,349.551422 570.521057,349.901703 575.616394,350.246246 
	C577.298645,336.472107 571.702209,328.863098 559.415527,327.103027 
	C546.119812,325.198364 537.001587,332.849487 536.843506,346.201813 
	C536.750854,354.027405 536.294434,361.925751 537.180298,369.656372 
	C537.694519,374.144409 539.587097,379.224976 542.550354,382.516846 
	C547.804626,388.353851 561.272400,388.527496 568.292175,384.028107 
	C574.852539,379.823090 577.665527,371.262360 575.375488,362.383545 
	C570.653564,362.383545 565.924072,362.383545 561.077942,362.383545 
	C560.864502,366.232788 560.898621,369.740906 560.366089,373.160736 
	C560.157410,374.500763 558.678162,375.642883 557.777588,376.875122 
	C556.676392,375.638580 554.650940,374.425385 554.618958,373.161835 
	C554.341736,362.185791 554.351746,351.199646 554.510864,340.219940 
	C554.526001,339.179474 556.144592,338.162292 557.018677,337.134277 
	C557.886230,338.199677 559.301880,339.168823 559.509338,340.350128 
	C559.965515,342.947296 559.810913,345.651733 560.160522,349.201141 
M465.083984,364.490936 
	C465.154694,368.644653 465.049927,372.810730 465.342438,376.948792 
	C465.675171,381.656158 468.296844,384.820374 473.037506,385.379395 
	C477.929474,385.956268 482.891968,385.935333 488.174805,386.193054 
	C488.174805,382.837860 488.174805,380.120789 488.174805,377.111084 
	C483.817078,377.584747 482.802185,375.421967 482.861572,371.746735 
	C483.028046,361.442657 482.916351,351.134247 482.943634,340.827606 
	C482.945740,340.033325 483.176453,339.239655 483.284882,338.547821 
	C484.888672,338.084381 486.249634,337.691132 487.686249,337.276031 
	C487.485809,333.405182 489.965332,328.591309 483.137878,328.497711 
	C482.965454,325.624481 482.810272,323.038879 482.648315,320.340088 
	C476.666840,320.340088 471.118683,320.340088 465.589050,320.340088 
	C464.217529,323.740082 466.888397,328.321747 461.675751,330.192627 
	C460.957672,330.450317 461.242065,337.079620 461.999146,337.283691 
	C466.639984,338.534668 464.935577,341.958862 465.018219,344.545074 
	C465.219818,350.855652 465.083984,357.177002 465.083984,364.490936 
M187.101181,352.500000 
	C187.101181,363.589386 187.101181,374.678802 187.101181,385.737366 
	C193.346069,385.737366 198.934540,385.737366 204.997269,385.737366 
	C204.997269,376.682617 204.908157,367.892151 205.021729,359.104279 
	C205.140884,349.884857 205.981339,349.010345 215.018860,347.595062 
	C215.018860,340.858612 215.018860,334.106995 215.018860,325.910614 
	C211.050797,328.762726 207.890503,331.034241 204.467422,333.494629 
	C204.467422,331.616058 204.467422,329.913452 204.467422,328.298553 
	C198.569839,328.298553 192.989700,328.298553 187.101181,328.298553 
	C187.101181,336.234039 187.101181,343.867035 187.101181,352.500000 
M450.595032,371.997437 
	C449.151550,372.106689 447.708069,372.215942 446.132935,372.335175 
	C446.132935,376.955597 446.132935,381.194916 446.132935,385.639404 
	C450.504395,385.639404 454.547333,385.639404 458.701660,385.639404 
	C458.701660,381.024567 458.701660,376.777802 458.701660,371.997070 
	C456.128845,371.997070 453.836304,371.997070 450.595032,371.997437 
z"/>
<path fill="#F1F6FB" opacity="1.000000" stroke="none" 
	d="
M358.221405,386.006836 
	C356.864166,385.013397 355.220734,384.025635 355.214264,383.027252 
	C355.068390,360.580994 355.102264,338.133575 355.102264,315.339752 
	C361.031036,315.339752 366.730591,315.339752 372.778931,315.339752 
	C372.778931,320.527893 372.778931,325.627747 372.778931,331.432251 
	C377.719818,328.306580 382.128815,325.911346 387.816956,327.545532 
	C393.125519,329.070679 395.829590,332.336304 395.911102,337.485016 
	C396.105957,349.795380 396.012115,362.111969 395.895355,374.424744 
	C395.848328,379.388000 394.035950,383.550385 389.223480,385.785278 
	C384.007782,388.207397 379.753510,387.248474 374.665649,383.368835 
	C371.503571,384.484283 369.394409,385.609314 367.172394,385.915680 
	C364.396057,386.298431 361.526825,386.007599 358.221405,386.006836 
M372.898834,356.500397 
	C372.951782,362.309174 372.879761,368.124207 373.171875,373.920929 
	C373.225006,374.975494 374.766388,375.955017 375.620758,376.969208 
	C376.439758,375.950287 377.953979,374.942780 377.970886,373.910736 
	C378.152679,362.796204 378.176880,351.676514 377.995331,340.562317 
	C377.975861,339.371094 376.381958,338.205566 375.518433,337.028137 
	C374.685242,338.206696 373.208679,339.344818 373.131653,340.570862 
	C372.819855,345.533081 372.938812,350.522369 372.898834,356.500397 
z"/>
<path fill="#438AC8" opacity="1.000000" stroke="none" 
	d="
M623.112732,370.995544 
	C623.112854,376.118439 623.112854,380.742157 623.112854,385.681427 
	C617.157837,385.681427 611.734497,385.681427 605.674316,385.681427 
	C605.561340,384.004242 605.347107,382.265442 605.342712,380.526154 
	C605.312561,368.698425 605.339050,356.870575 605.313293,345.042847 
	C605.309326,343.215088 605.343628,341.339935 604.946960,339.579865 
	C604.741089,338.666229 603.630798,337.956390 602.929077,337.154541 
	C602.029114,337.949799 600.701538,338.586700 600.333923,339.579193 
	C599.838074,340.917786 600.019348,342.529999 600.017151,344.024963 
	C599.999573,356.019348 600.007202,368.013733 600.007141,380.008118 
	C600.007141,381.803131 600.007141,383.598145 600.007141,385.690521 
	C593.925964,385.690521 588.359436,385.690521 582.436768,385.690521 
	C582.436768,362.290009 582.436768,339.057129 582.436768,315.407654 
	C588.019409,315.407654 593.585510,315.407654 599.713989,315.407654 
	C599.713989,320.178894 599.713989,325.084167 599.713989,329.937531 
	C600.584717,330.030334 600.971741,330.200287 601.208618,330.078430 
	C614.722839,323.126740 622.972107,327.996307 623.046692,343.010040 
	C623.092224,352.172058 623.092163,361.334259 623.112732,370.995544 
z"/>
<path fill="#F3F9FD" opacity="1.000000" stroke="none" 
	d="
M339.996826,328.802856 
	C345.690063,331.081085 348.734406,335.164032 348.818878,340.763947 
	C349.043915,355.683777 348.895416,370.609253 348.895416,385.767273 
	C343.391815,385.767273 337.962921,385.767273 332.393646,385.767273 
	C332.220215,384.642792 332.051544,383.549164 331.856140,382.282379 
	C331.375793,382.555298 330.899658,382.697296 330.608032,383.010925 
	C326.600281,387.321045 321.832947,387.848083 316.511871,385.982208 
	C311.283051,384.148651 309.940613,380.038300 309.582153,375.036011 
	C308.495911,359.878357 309.315491,358.465302 323.461792,352.876556 
	C331.581726,349.668640 333.143372,347.504425 331.542145,340.656097 
	C331.218872,339.273560 329.446686,338.229828 328.342499,337.029877 
	C327.575623,338.267548 326.296509,339.446411 326.146271,340.754883 
	C325.811798,343.668274 326.041840,346.646454 326.041840,349.792175 
	C320.487274,349.792175 315.381165,349.792175 310.265228,349.792175 
	C306.343750,335.300995 317.306488,324.520020 333.424957,327.115906 
	C335.520233,327.453339 337.555939,328.160492 339.996826,328.802856 
M326.036346,366.047058 
	C326.052490,368.708191 325.808594,371.409119 326.207275,374.011658 
	C326.376862,375.118835 327.891449,376.019989 328.794800,377.014740 
	C329.753754,376.103912 331.490906,375.234467 331.541931,374.275391 
	C331.816284,369.113586 331.671692,363.929535 331.671692,358.753143 
	C331.198578,358.597717 330.725464,358.442291 330.252350,358.286865 
	C328.874115,360.592041 327.495880,362.897186 326.036346,366.047058 
z"/>
<path fill="#F3F9FD" opacity="1.000000" stroke="none" 
	d="
M401.866913,349.427216 
	C401.329346,341.397278 401.268768,333.710815 409.561707,329.686157 
	C417.458344,325.853851 425.596375,325.958282 433.562103,329.502808 
	C438.449982,331.677795 440.806183,335.961914 440.865601,341.120483 
	C441.035980,355.908661 440.925568,370.700134 440.925568,385.746338 
	C435.439240,385.746338 430.005463,385.746338 424.387573,385.746338 
	C424.218445,384.658691 424.047699,383.560730 423.852997,382.308685 
	C423.407959,382.548889 422.919952,382.676849 422.630554,382.988983 
	C418.622406,387.312317 413.851074,387.852600 408.517181,385.984314 
	C403.275665,384.148376 401.740570,380.041779 401.614197,375.016083 
	C401.605865,374.684143 401.532440,374.354279 401.514343,374.022064 
	C400.735443,359.728241 401.691498,358.242828 415.044922,352.991943 
	C423.765564,349.562714 425.245697,347.579132 423.528961,340.563293 
	C423.195862,339.201965 421.373871,338.204956 420.238647,337.039886 
	C419.505188,338.311737 418.295441,339.527435 418.137482,340.867126 
	C417.809143,343.652130 418.038239,346.502838 418.038239,349.789581 
	C412.625977,349.789581 407.374695,349.789581 401.866913,349.427216 
M418.118713,365.195099 
	C418.098480,368.023285 417.789337,370.893372 418.190338,373.660522 
	C418.367920,374.885834 419.982574,375.902893 420.944855,377.014496 
	C421.881409,375.888275 423.552826,374.807861 423.626343,373.627899 
	C423.931519,368.727570 423.754578,363.797241 423.754578,358.877899 
	C423.379059,358.687286 423.003510,358.496674 422.627991,358.306061 
	C421.177368,360.332245 419.726746,362.358398 418.118713,365.195099 
z"/>
<path fill="#F3F9FD" opacity="1.000000" stroke="none" 
	d="
M141.882721,339.207275 
	C144.218384,329.254303 154.889633,325.914001 164.046997,327.177368 
	C175.454254,328.751099 180.851334,334.543396 181.076401,344.959534 
	C181.234543,352.278442 180.942017,359.608032 181.142563,366.924866 
	C181.581207,382.929688 170.478516,388.430206 156.754211,386.758453 
	C145.068024,385.334961 141.042709,380.481323 140.957870,368.457581 
	C140.890060,358.845490 141.504074,349.228607 141.882721,339.207275 
M158.136322,357.499481 
	C158.153030,362.470184 157.954865,367.456329 158.310516,372.402679 
	C158.425049,373.995453 159.998230,375.483398 160.904114,377.019287 
	C161.870850,375.559540 163.641312,374.118195 163.675262,372.637115 
	C163.914307,362.204315 163.910278,351.760590 163.662018,341.328003 
	C163.627014,339.856750 161.842514,338.427124 160.867783,336.978210 
	C159.974014,338.514923 158.421875,340.004944 158.308899,341.597107 
	C157.957886,346.544067 158.153046,351.529816 158.136322,357.499481 
z"/>
<path fill="#F3F9FD" opacity="1.000000" stroke="none" 
	d="
M227.657440,329.329346 
	C232.693344,328.462311 237.510040,326.785767 242.069580,327.316925 
	C254.175064,328.727081 258.875031,334.554047 259.128784,347.001343 
	C259.264465,353.656921 258.959961,360.322571 259.141083,366.975891 
	C259.575775,382.945892 248.421066,388.459686 234.695480,386.744385 
	C223.026779,385.286133 219.176651,380.453094 218.917252,368.389069 
	C218.745544,360.403442 218.752472,352.404602 219.007004,344.422119 
	C219.207001,338.149628 221.361176,332.709595 227.657440,329.329346 
M241.863678,359.496094 
	C241.838531,353.365417 241.973358,347.226746 241.668533,341.109985 
	C241.597977,339.694305 240.025314,338.353485 239.143875,336.978210 
	C238.172058,338.257721 236.384583,339.519897 236.356964,340.819489 
	C236.128189,351.583984 236.125687,362.357513 236.351135,373.122101 
	C236.378738,374.440155 238.155365,375.721588 239.121445,377.019989 
	C240.011993,375.653168 241.542953,374.343719 241.671616,372.908600 
	C242.040192,368.797363 241.840149,364.635162 241.863678,359.496094 
z"/>
<path fill="#448BC9" opacity="1.000000" stroke="none" 
	d="
M504.160736,327.848267 
	C525.738342,324.507843 533.449768,335.378143 530.748596,357.751587 
	C523.596191,357.751587 516.347839,357.751587 508.452789,357.751587 
	C508.452789,363.527557 508.302551,368.770538 508.582184,373.990448 
	C508.636780,375.010193 510.351624,376.692383 511.314789,376.702271 
	C512.291687,376.712311 513.971985,375.142792 514.148560,374.068512 
	C514.762634,370.332458 514.858093,366.511200 515.178467,362.363983 
	C520.306091,362.363983 525.367493,362.363983 530.406494,362.363983 
	C532.743225,371.877930 529.887268,380.318634 523.031799,384.346832 
	C515.447083,388.803528 501.241943,387.789093 495.912628,381.665161 
	C493.458984,378.845673 491.473938,374.740387 491.200623,371.074646 
	C490.521576,361.965546 490.700378,352.765808 491.002502,343.617920 
	C491.288269,334.965027 495.043365,330.702179 504.160736,327.848267 
M513.271484,338.512726 
	C510.586090,335.649841 508.977325,336.707153 508.263519,340.026031 
	C507.956757,341.452301 508.219513,342.991241 508.089661,344.467224 
	C507.688324,349.028015 509.710510,349.888733 513.571899,348.381927 
	C513.571899,345.179352 513.571899,342.236053 513.271484,338.512726 
z"/>
<path fill="#F2F8FC" opacity="1.000000" stroke="none" 
	d="
M132.993164,381.959351 
	C125.096138,388.161163 112.126732,388.667175 104.260185,383.409637 
	C100.275391,380.746460 98.880653,376.861450 98.686539,372.317444 
	C98.594559,370.164215 98.404984,368.015167 98.230042,365.426392 
	C103.384544,365.426392 108.418686,365.426392 114.151756,365.426392 
	C114.151756,367.998444 113.797150,370.826141 114.302467,373.490814 
	C114.552361,374.808624 116.387070,375.825897 117.504723,376.979126 
	C118.466095,375.845093 120.040878,374.823853 120.273972,373.555969 
	C120.976837,369.732819 120.195229,366.447357 116.084167,364.510254 
	C112.497597,362.820343 109.090919,360.696320 105.761208,358.524292 
	C98.473465,353.770325 96.147690,346.544525 98.678429,337.165131 
	C100.369453,330.897858 105.285698,327.423981 113.996559,327.093719 
	C117.746788,326.951508 121.726479,327.267181 125.269730,328.407257 
	C132.992828,330.892303 136.425110,334.809265 134.912659,346.692261 
	C130.082825,346.692261 125.202972,346.692261 120.052574,346.692261 
	C119.961975,344.750732 120.204849,342.711548 119.674644,340.898407 
	C119.254837,339.462769 117.886581,338.304504 116.939491,337.023071 
	C115.961372,338.443207 113.937714,340.124481 114.214134,341.231323 
	C114.869965,343.857330 116.105522,346.778625 118.052040,348.529938 
	C120.438446,350.677063 123.817421,351.700623 126.716255,353.302277 
	C137.327209,359.164948 140.137482,371.455780 132.993164,381.959351 
z"/>
<path fill="#F3F9FD" opacity="1.000000" stroke="none" 
	d="
M282.210480,355.008423 
	C282.224854,360.994965 281.991211,366.503021 282.398438,371.963257 
	C282.527588,373.695099 284.365479,375.299530 285.421417,376.962250 
	C286.510864,375.380707 288.259338,373.909027 288.545410,372.193512 
	C289.057739,369.120972 288.689789,365.901703 288.689789,362.371124 
	C293.775177,362.371124 298.652039,362.371124 303.913879,362.371124 
	C304.693970,370.403046 304.491669,378.460266 296.863251,383.506287 
	C289.251648,388.541168 280.841827,388.277039 272.736176,384.286774 
	C267.192413,381.557648 265.280396,376.261108 265.081421,370.606171 
	C264.748291,361.138489 264.614777,351.633698 265.066772,342.176514 
	C265.556152,331.935760 276.273834,325.136475 287.833801,327.164307 
	C300.097229,329.315552 305.084290,336.302521 303.797516,349.761230 
	C298.576721,349.761230 293.337097,349.761230 287.713348,349.761230 
	C287.713348,346.559082 287.980194,343.559326 287.591339,340.647156 
	C287.418579,339.353333 285.922516,338.236176 285.027100,337.038849 
	C284.116150,338.205811 282.507477,339.322083 282.418365,340.548767 
	C282.081665,345.183563 282.238403,349.854187 282.210480,355.008423 
z"/>
<path fill="#448BC9" opacity="1.000000" stroke="none" 
	d="
M560.033081,348.756775 
	C559.810913,345.651733 559.965515,342.947296 559.509338,340.350128 
	C559.301880,339.168823 557.886230,338.199677 557.018677,337.134277 
	C556.144592,338.162292 554.526001,339.179474 554.510864,340.219940 
	C554.351746,351.199646 554.341736,362.185791 554.618958,373.161835 
	C554.650940,374.425385 556.676392,375.638580 557.777588,376.875122 
	C558.678162,375.642883 560.157410,374.500763 560.366089,373.160736 
	C560.898621,369.740906 560.864502,366.232788 561.077942,362.383545 
	C565.924072,362.383545 570.653564,362.383545 575.375488,362.383545 
	C577.665527,371.262360 574.852539,379.823090 568.292175,384.028107 
	C561.272400,388.527496 547.804626,388.353851 542.550354,382.516846 
	C539.587097,379.224976 537.694519,374.144409 537.180298,369.656372 
	C536.294434,361.925751 536.750854,354.027405 536.843506,346.201813 
	C537.001587,332.849487 546.119812,325.198364 559.415527,327.103027 
	C571.702209,328.863098 577.298645,336.472107 575.616394,350.246246 
	C570.521057,349.901703 565.340820,349.551422 560.033081,348.756775 
z"/>
<path fill="#438AC8" opacity="1.000000" stroke="none" 
	d="
M465.084015,363.992493 
	C465.083984,357.177002 465.219818,350.855652 465.018219,344.545074 
	C464.935577,341.958862 466.639984,338.534668 461.999146,337.283691 
	C461.242065,337.079620 460.957672,330.450317 461.675751,330.192627 
	C466.888397,328.321747 464.217529,323.740082 465.589050,320.340088 
	C471.118683,320.340088 476.666840,320.340088 482.648315,320.340088 
	C482.810272,323.038879 482.965454,325.624481 483.137878,328.497711 
	C489.965332,328.591309 487.485809,333.405182 487.686249,337.276031 
	C486.249634,337.691132 484.888672,338.084381 483.284882,338.547821 
	C483.176453,339.239655 482.945740,340.033325 482.943634,340.827606 
	C482.916351,351.134247 483.028046,361.442657 482.861572,371.746735 
	C482.802185,375.421967 483.817078,377.584747 488.174805,377.111084 
	C488.174805,380.120789 488.174805,382.837860 488.174805,386.193054 
	C482.891968,385.935333 477.929474,385.956268 473.037506,385.379395 
	C468.296844,384.820374 465.675171,381.656158 465.342438,376.948792 
	C465.049927,372.810730 465.154694,368.644653 465.084015,363.992493 
z"/>
<path fill="#F1F6FB" opacity="1.000000" stroke="none" 
	d="
M187.101181,352.000000 
	C187.101181,343.867035 187.101181,336.234039 187.101181,328.298553 
	C192.989700,328.298553 198.569839,328.298553 204.467422,328.298553 
	C204.467422,329.913452 204.467422,331.616058 204.467422,333.494629 
	C207.890503,331.034241 211.050797,328.762726 215.018860,325.910614 
	C215.018860,334.106995 215.018860,340.858612 215.018860,347.595062 
	C205.981339,349.010345 205.140884,349.884857 205.021729,359.104279 
	C204.908157,367.892151 204.997269,376.682617 204.997269,385.737366 
	C198.934540,385.737366 193.346069,385.737366 187.101181,385.737366 
	C187.101181,374.678802 187.101181,363.589386 187.101181,352.000000 
z"/>
<path fill="#448BC9" opacity="1.000000" stroke="none" 
	d="
M451.069397,371.997253 
	C453.836304,371.997070 456.128845,371.997070 458.701660,371.997070 
	C458.701660,376.777802 458.701660,381.024567 458.701660,385.639404 
	C454.547333,385.639404 450.504395,385.639404 446.132935,385.639404 
	C446.132935,381.194916 446.132935,376.955597 446.132935,372.335175 
	C447.708069,372.215942 449.151550,372.106689 451.069397,371.997253 
z"/>
<path fill="#1D2143" opacity="1.000000" stroke="none" 
	d="
M372.898834,356.001038 
	C372.938812,350.522369 372.819855,345.533081 373.131653,340.570862 
	C373.208679,339.344818 374.685242,338.206696 375.518433,337.028137 
	C376.381958,338.205566 377.975861,339.371094 377.995331,340.562317 
	C378.176880,351.676514 378.152679,362.796204 377.970886,373.910736 
	C377.953979,374.942780 376.439758,375.950287 375.620758,376.969208 
	C374.766388,375.955017 373.225006,374.975494 373.171875,373.920929 
	C372.879761,368.124207 372.951782,362.309174 372.898834,356.001038 
z"/>
<path fill="#2F3152" opacity="1.000000" stroke="none" 
	d="
M326.076996,365.624695 
	C327.495880,362.897186 328.874115,360.592041 330.252350,358.286865 
	C330.725464,358.442291 331.198578,358.597717 331.671692,358.753143 
	C331.671692,363.929535 331.816284,369.113586 331.541931,374.275391 
	C331.490906,375.234467 329.753754,376.103912 328.794800,377.014740 
	C327.891449,376.019989 326.376862,375.118835 326.207275,374.011658 
	C325.808594,371.409119 326.052490,368.708191 326.076996,365.624695 
z"/>
<path fill="#2F3152" opacity="1.000000" stroke="none" 
	d="
M418.197418,364.789825 
	C419.726746,362.358398 421.177368,360.332245 422.627991,358.306061 
	C423.003510,358.496674 423.379059,358.687286 423.754578,358.877899 
	C423.754578,363.797241 423.931519,368.727570 423.626343,373.627899 
	C423.552826,374.807861 421.881409,375.888275 420.944855,377.014496 
	C419.982574,375.902893 418.367920,374.885834 418.190338,373.660522 
	C417.789337,370.893372 418.098480,368.023285 418.197418,364.789825 
z"/>
<path fill="#343656" opacity="1.000000" stroke="none" 
	d="
M158.136322,357.000000 
	C158.153046,351.529816 157.957886,346.544067 158.308899,341.597107 
	C158.421875,340.004944 159.974014,338.514923 160.867798,336.978210 
	C161.842514,338.427124 163.627014,339.856750 163.662018,341.328003 
	C163.910278,351.760590 163.914307,362.204315 163.675262,372.637115 
	C163.641312,374.118195 161.870850,375.559540 160.904114,377.019287 
	C159.998230,375.483398 158.425049,373.995453 158.310516,372.402679 
	C157.954865,367.456329 158.153030,362.470184 158.136322,357.000000 
z"/>
<path fill="#343656" opacity="1.000000" stroke="none" 
	d="
M241.863678,359.994537 
	C241.840149,364.635162 242.040192,368.797363 241.671616,372.908600 
	C241.542953,374.343719 240.011993,375.653168 239.121445,377.019989 
	C238.155365,375.721588 236.378738,374.440155 236.351135,373.122101 
	C236.125687,362.357513 236.128189,351.583984 236.356964,340.819489 
	C236.384583,339.519897 238.172058,338.257721 239.143875,336.978210 
	C240.025314,338.353485 241.597977,339.694305 241.668533,341.109985 
	C241.973358,347.226746 241.838531,353.365417 241.863678,359.994537 
z"/>
<path fill="#2F3152" opacity="1.000000" stroke="none" 
	d="
M513.421692,338.902771 
	C513.571899,342.236053 513.571899,345.179352 513.571899,348.381927 
	C509.710510,349.888733 507.688324,349.028015 508.089661,344.467224 
	C508.219513,342.991241 507.956757,341.452301 508.263519,340.026031 
	C508.977325,336.707153 510.586090,335.649841 513.421692,338.902771 
z"/>
</svg>